<?xml version="1.0" encoding="utf-8"?>
<!-- Generator: Adobe Illustrator 18.0.0, SVG Export Plug-In . SVG Version: 6.00 Build 0)  -->
<!DOCTYPE svg PUBLIC "-//W3C//DTD SVG 1.1//EN" "http://www.w3.org/Graphics/SVG/1.1/DTD/svg11.dtd">
<svg version="1.1" id="Layer_1" xmlns="http://www.w3.org/2000/svg" xmlns:xlink="http://www.w3.org/1999/xlink" x="0px" y="0px"
	 viewBox="0 0 30 30" enable-background="new 0 0 30 30" xml:space="preserve">
<g>
	
		<sodipodi:namedview  id="base" fit-margin-bottom="0.5" inkscape:document-units="px" inkscape:pageshadow="2" inkscape:current-layer="layer1" fit-margin-right="0.5" inkscape:window-width="1920" inkscape:window-height="1028" inkscape:window-x="-8" inkscape:window-y="-8" inkscape:window-maximized="1" inkscape:pageopacity="0.0" fit-margin-top="0.5" bordercolor="#666666" inkscape:zoom="0.49497475" borderopacity="1.0" pagecolor="#ffffff" inkscape:cy="-8.1858472" inkscape:cx="1268.2181" fit-margin-left="0.5" showgrid="false">
		<inkscape:grid  type="xygrid" id="grid2996" snapvisiblegridlinesonly="true" empspacing="5" enabled="true" visible="true">
			</inkscape:grid>
	</sodipodi:namedview>
	<g id="layer1_1_" transform="translate(-39.499999,287.13782)" inkscape:groupmode="layer" inkscape:label="Layer 1">
		<g id="g3005_1_" transform="matrix(1.7404181,0,0,1.7404181,-29.616725,-527.44586)">
			<path id="path3002_1_" inkscape:connector-curvature="0" sodipodi:nodetypes="ccccccccccccccccc" d="M87.2,152v-4.5h-1.5v-1.7
				h1.5v-1.3c0-1.4,0.9-2.3,2.2-2.3c0.8,0,1.4,0.1,1.4,0.1v1.6h-0.9c-0.6,0-0.9,0.2-0.9,0.8v1.1h1.7l-0.2,1.7H89v4.5H87.2z"/>
			<circle fill="none" stroke="#FFFFFF" stroke-width="2" stroke-miterlimit="10" cx="48.3" cy="146.9" r="12.5"/>
			<g>
				<g>
					<path fill="#010101" d="M88.5,131c0.2,0.2,0.7,0.6,0.7,1.3c0,0.7-0.4,1.1-0.8,1.4c-0.1,0.1-0.3,0.3-0.3,0.5
						c0,0.2,0.1,0.3,0.3,0.4l0.4,0.3c0.4,0.4,0.8,0.7,0.8,1.4c0,0.9-0.9,1.9-2.6,1.9c-1.4,0-2.1-0.7-2.1-1.4c0-0.4,0.2-0.9,0.8-1.2
						c0.6-0.4,1.5-0.4,1.9-0.5c-0.1-0.2-0.3-0.4-0.3-0.7c0-0.2,0.1-0.3,0.1-0.4c-0.1,0-0.2,0-0.3,0c-1.1,0-1.7-0.8-1.7-1.5
						c0-0.5,0.2-1,0.6-1.3c0.6-0.5,1.2-0.5,1.8-0.5h2.1l-0.6,0.4H88.5z M87.7,135.3c-0.1,0-0.1,0-0.2,0c-0.1,0-0.6,0-1,0.2
						c-0.2,0.1-0.9,0.3-0.9,1s0.7,1.2,1.8,1.2c1,0,1.5-0.5,1.5-1.1C88.8,136.1,88.5,135.8,87.7,135.3 M88,133.5
						c0.2-0.2,0.2-0.5,0.2-0.7c0-0.7-0.4-1.8-1.3-1.8c-0.3,0-0.5,0.1-0.7,0.3c-0.2,0.2-0.2,0.5-0.2,0.7c0,0.7,0.4,1.7,1.2,1.7
						C87.6,133.7,87.9,133.6,88,133.5"/>
					<polygon fill="#010101" points="93.4,132.1 91.9,132.1 91.9,130.6 91.6,130.6 91.6,132.1 90,132.1 90,132.5 91.6,132.5 
						91.6,134.1 91.9,134.1 91.9,132.5 93.4,132.5 					"/>
				</g>
			</g>
			<g>
				<path id="bird_1_" fill="#FFFFFF" d="M43.7,148.5c0.6,0.6,2.2,1.1,3.4-0.2c-0.2,0-0.4,0-0.6-0.2c-0.1-0.1-0.1-0.3-0.1-0.4
					c0.1-0.1,0.2-0.2,0.3-0.3c-0.2,0-0.4,0-0.6-0.1c-0.2-0.1-0.5-0.2-0.5-0.5c0.1-0.1,0.3-0.3,0.6-0.2c-0.3-0.1-0.6-0.2-0.8-0.5
					c-0.2-0.2-0.2-0.3-0.3-0.5c0.2-0.1,0.4-0.1,0.6-0.1c-0.4-0.2-0.6-0.5-0.7-0.9c0-0.1,0-0.2,0-0.3c1.8,0.7,2.6,1.2,3.1,1.6
					c0.2-0.6,0.7-1.8,1.4-2.3c0,0.1,0,0.1-0.1,0.2c0.2-0.1,0.4-0.3,0.7-0.3c0,0.1-0.1,0.3-0.3,0.3c0.2-0.1,0.4-0.1,0.6-0.2
					c0.2,0,0.2,0.1,0.1,0.2c-0.2,0.2-0.4,0.2-0.7,0.2c0.7,0,1.3,0.3,1.7,1.1c0.1,0.2,0.2,0.5,0.3,0.7c0.3,0.1,0.6,0.1,0.9,0
					c0.1,0,0.2,0,0.2-0.1c-0.1,0.2-0.2,0.3-0.4,0.4c-0.2,0.1-0.4,0.1-0.6,0.1c0.3,0.1,0.7,0.1,1,0.1c-0.4,0.4-0.8,0.4-1.1,0.4
					c-0.1,0.6-0.5,1.3-1.1,1.8c-0.8,0.8-1.8,1.1-2.7,1.2c-0.9,0.1-1.7,0.1-2.7-0.4C44.7,149.6,44.1,149.1,43.7,148.5L43.7,148.5z"/>
			</g>
		</g>
	</g>
</g>
</svg>
